<svg width="187" height="36" viewBox="0 0 187 36" fill="none" xmlns="http://www.w3.org/2000/svg">
<rect x="9" width="178" height="36" rx="5" fill="#EDC0C3"/>
<path d="M-2.62268e-07 18L9 12.8038L9 23.1962L-2.62268e-07 18Z" fill="#EDC0C3"/>
<path d="M28.2617 16.4121C28.2617 17.4961 27.8906 18.3311 27.1484 18.917C26.4111 19.498 25.354 19.7886 23.9771 19.7886H22.7173V24H21.4722V13.292H24.248C26.9238 13.292 28.2617 14.332 28.2617 16.4121ZM22.7173 18.7192H23.8379C24.9414 18.7192 25.7397 18.541 26.2329 18.1846C26.7261 17.8281 26.9727 17.2568 26.9727 16.4707C26.9727 15.7627 26.7407 15.2354 26.2769 14.8887C25.813 14.542 25.0903 14.3687 24.1089 14.3687H22.7173V18.7192ZM33.9893 15.8262C34.3457 15.8262 34.6655 15.8555 34.9487 15.9141L34.7803 17.042C34.4482 16.9688 34.1553 16.9321 33.9014 16.9321C33.252 16.9321 32.6953 17.1958 32.2314 17.7231C31.7725 18.2505 31.543 18.9072 31.543 19.6934V24H30.3271V15.9727H31.3306L31.4697 17.4595H31.5283C31.8262 16.937 32.1851 16.5342 32.605 16.251C33.0249 15.9678 33.4863 15.8262 33.9893 15.8262ZM39.8413 24.1465C38.6548 24.1465 37.7173 23.7852 37.0288 23.0625C36.3452 22.3398 36.0034 21.3364 36.0034 20.0522C36.0034 18.7583 36.3208 17.7305 36.9556 16.9688C37.5952 16.207 38.4521 15.8262 39.5264 15.8262C40.5322 15.8262 41.3281 16.1582 41.9141 16.8223C42.5 17.4814 42.793 18.353 42.793 19.437V20.2061H37.2632C37.2876 21.1484 37.5244 21.8638 37.9736 22.3521C38.4277 22.8403 39.0649 23.0845 39.8853 23.0845C40.7495 23.0845 41.604 22.9038 42.4487 22.5425V23.6265C42.019 23.812 41.6113 23.9438 41.2256 24.022C40.8447 24.105 40.3833 24.1465 39.8413 24.1465ZM39.5117 16.8442C38.8672 16.8442 38.3521 17.0542 37.9663 17.4741C37.5854 17.894 37.3608 18.4751 37.2925 19.2173H41.4893C41.4893 18.4507 41.3184 17.8647 40.9766 17.4595C40.6348 17.0493 40.1465 16.8442 39.5117 16.8442ZM48.2642 24.1465C47.0776 24.1465 46.1401 23.7852 45.4517 23.0625C44.7681 22.3398 44.4263 21.3364 44.4263 20.0522C44.4263 18.7583 44.7437 17.7305 45.3784 16.9688C46.0181 16.207 46.875 15.8262 47.9492 15.8262C48.9551 15.8262 49.751 16.1582 50.3369 16.8223C50.9229 17.4814 51.2158 18.353 51.2158 19.437V20.2061H45.686C45.7104 21.1484 45.9473 21.8638 46.3965 22.3521C46.8506 22.8403 47.4878 23.0845 48.3081 23.0845C49.1724 23.0845 50.0269 22.9038 50.8716 22.5425V23.6265C50.4419 23.812 50.0342 23.9438 49.6484 24.022C49.2676 24.105 48.8062 24.1465 48.2642 24.1465ZM47.9346 16.8442C47.29 16.8442 46.7749 17.0542 46.3892 17.4741C46.0083 17.894 45.7837 18.4751 45.7153 19.2173H49.9121C49.9121 18.4507 49.7412 17.8647 49.3994 17.4595C49.0576 17.0493 48.5693 16.8442 47.9346 16.8442ZM58.7891 24V18.8071C58.7891 18.1528 58.6401 17.6646 58.3423 17.3423C58.0444 17.02 57.5781 16.8589 56.9434 16.8589C56.1035 16.8589 55.4883 17.0859 55.0977 17.54C54.707 17.9941 54.5117 18.7437 54.5117 19.7886V24H53.2959V15.9727H54.2847L54.4824 17.0713H54.541C54.79 16.6758 55.1392 16.3706 55.5884 16.1558C56.0376 15.936 56.5381 15.8262 57.0898 15.8262C58.0566 15.8262 58.7842 16.0605 59.2725 16.5293C59.7607 16.9932 60.0049 17.7378 60.0049 18.7632V24H58.7891ZM65.7178 24.1465C64.5557 24.1465 63.6548 23.79 63.0151 23.0771C62.3804 22.3594 62.063 21.3462 62.063 20.0376C62.063 18.6948 62.3853 17.6572 63.0298 16.9248C63.6792 16.1924 64.6021 15.8262 65.7983 15.8262C66.1841 15.8262 66.5698 15.8677 66.9556 15.9507C67.3413 16.0337 67.644 16.1313 67.8638 16.2437L67.4902 17.2764C67.2217 17.1689 66.9287 17.0811 66.6113 17.0127C66.2939 16.9395 66.0132 16.9028 65.769 16.9028C64.1382 16.9028 63.3228 17.9429 63.3228 20.0229C63.3228 21.0093 63.5205 21.7661 63.916 22.2935C64.3164 22.8208 64.9072 23.0845 65.6885 23.0845C66.3574 23.0845 67.0435 22.9404 67.7466 22.6523V23.729C67.2095 24.0073 66.5332 24.1465 65.7178 24.1465ZM75.1514 24V18.8071C75.1514 18.1528 75.0024 17.6646 74.7046 17.3423C74.4067 17.02 73.9404 16.8589 73.3057 16.8589C72.4609 16.8589 71.8433 17.0884 71.4526 17.5474C71.0669 18.0063 70.874 18.7583 70.874 19.8032V24H69.6582V12.6035H70.874V16.0532C70.874 16.4683 70.8545 16.8125 70.8154 17.0859H70.8887C71.1279 16.7002 71.4673 16.3975 71.9067 16.1777C72.3511 15.9531 72.8564 15.8408 73.4229 15.8408C74.4043 15.8408 75.1392 16.0752 75.6274 16.5439C76.1206 17.0078 76.3672 17.7476 76.3672 18.7632V24H75.1514ZM83.8086 24L83.5669 22.8574H83.5083C83.1079 23.3604 82.7075 23.7021 82.3071 23.8828C81.9116 24.0586 81.416 24.1465 80.8203 24.1465C80.0244 24.1465 79.3994 23.9414 78.9453 23.5312C78.4961 23.1211 78.2715 22.5376 78.2715 21.7808C78.2715 20.1597 79.5679 19.3101 82.1606 19.2319L83.5229 19.188V18.6899C83.5229 18.0601 83.3862 17.5962 83.1128 17.2983C82.8442 16.9956 82.4121 16.8442 81.8164 16.8442C81.1475 16.8442 80.3906 17.0493 79.5459 17.4595L79.1724 16.5293C79.5679 16.3145 80 16.146 80.4688 16.0239C80.9424 15.9019 81.416 15.8408 81.8896 15.8408C82.8467 15.8408 83.5547 16.0532 84.0137 16.478C84.4775 16.9028 84.7095 17.584 84.7095 18.5215V24H83.8086ZM81.062 23.1431C81.8188 23.1431 82.4121 22.9355 82.8418 22.5205C83.2764 22.1055 83.4937 21.5244 83.4937 20.7773V20.0522L82.2778 20.1035C81.311 20.1377 80.6128 20.2891 80.1831 20.5576C79.7583 20.8213 79.5459 21.2339 79.5459 21.7954C79.5459 22.2349 79.6777 22.5693 79.9414 22.7988C80.21 23.0283 80.5835 23.1431 81.062 23.1431ZM94.5093 24.1465C93.3228 24.1465 92.3853 23.7852 91.6968 23.0625C91.0132 22.3398 90.6714 21.3364 90.6714 20.0522C90.6714 18.7583 90.9888 17.7305 91.6235 16.9688C92.2632 16.207 93.1201 15.8262 94.1943 15.8262C95.2002 15.8262 95.9961 16.1582 96.582 16.8223C97.168 17.4814 97.4609 18.353 97.4609 19.437V20.2061H91.9312C91.9556 21.1484 92.1924 21.8638 92.6416 22.3521C93.0957 22.8403 93.7329 23.0845 94.5532 23.0845C95.4175 23.0845 96.272 22.9038 97.1167 22.5425V23.6265C96.687 23.812 96.2793 23.9438 95.8936 24.022C95.5127 24.105 95.0513 24.1465 94.5093 24.1465ZM94.1797 16.8442C93.5352 16.8442 93.02 17.0542 92.6343 17.4741C92.2534 17.894 92.0288 18.4751 91.9604 19.2173H96.1572C96.1572 18.4507 95.9863 17.8647 95.6445 17.4595C95.3027 17.0493 94.8145 16.8442 94.1797 16.8442ZM104.719 21.8101C104.719 22.5571 104.441 23.1333 103.884 23.5386C103.328 23.9438 102.546 24.1465 101.541 24.1465C100.476 24.1465 99.646 23.978 99.0503 23.6411V22.5132C99.436 22.7085 99.8486 22.8623 100.288 22.9746C100.732 23.0869 101.16 23.1431 101.57 23.1431C102.205 23.1431 102.693 23.043 103.035 22.8428C103.376 22.6377 103.547 22.3276 103.547 21.9126C103.547 21.6001 103.411 21.334 103.137 21.1143C102.869 20.8896 102.341 20.626 101.555 20.3232C100.808 20.0449 100.276 19.8032 99.9585 19.5981C99.646 19.3882 99.4116 19.1514 99.2554 18.8877C99.104 18.624 99.0283 18.3091 99.0283 17.9429C99.0283 17.2886 99.2944 16.7734 99.8267 16.3975C100.359 16.0166 101.089 15.8262 102.017 15.8262C102.881 15.8262 103.726 16.002 104.551 16.3535L104.119 17.3423C103.313 17.0103 102.583 16.8442 101.929 16.8442C101.353 16.8442 100.918 16.9346 100.625 17.1152C100.332 17.2959 100.186 17.5449 100.186 17.8623C100.186 18.0771 100.239 18.2603 100.347 18.4116C100.459 18.563 100.637 18.707 100.881 18.8438C101.125 18.9805 101.594 19.1782 102.288 19.437C103.24 19.7837 103.882 20.1328 104.214 20.4844C104.551 20.8359 104.719 21.2778 104.719 21.8101ZM111.882 21.8101C111.882 22.5571 111.604 23.1333 111.047 23.5386C110.491 23.9438 109.709 24.1465 108.704 24.1465C107.639 24.1465 106.809 23.978 106.213 23.6411V22.5132C106.599 22.7085 107.012 22.8623 107.451 22.9746C107.896 23.0869 108.323 23.1431 108.733 23.1431C109.368 23.1431 109.856 23.043 110.198 22.8428C110.54 22.6377 110.71 22.3276 110.71 21.9126C110.71 21.6001 110.574 21.334 110.3 21.1143C110.032 20.8896 109.504 20.626 108.718 20.3232C107.971 20.0449 107.439 19.8032 107.122 19.5981C106.809 19.3882 106.575 19.1514 106.418 18.8877C106.267 18.624 106.191 18.3091 106.191 17.9429C106.191 17.2886 106.458 16.7734 106.99 16.3975C107.522 16.0166 108.252 15.8262 109.18 15.8262C110.044 15.8262 110.889 16.002 111.714 16.3535L111.282 17.3423C110.476 17.0103 109.746 16.8442 109.092 16.8442C108.516 16.8442 108.081 16.9346 107.788 17.1152C107.495 17.2959 107.349 17.5449 107.349 17.8623C107.349 18.0771 107.402 18.2603 107.51 18.4116C107.622 18.563 107.8 18.707 108.044 18.8438C108.289 18.9805 108.757 19.1782 109.451 19.437C110.403 19.7837 111.045 20.1328 111.377 20.4844C111.714 20.8359 111.882 21.2778 111.882 21.8101ZM117.258 24.1465C116.072 24.1465 115.134 23.7852 114.446 23.0625C113.762 22.3398 113.42 21.3364 113.42 20.0522C113.42 18.7583 113.738 17.7305 114.373 16.9688C115.012 16.207 115.869 15.8262 116.943 15.8262C117.949 15.8262 118.745 16.1582 119.331 16.8223C119.917 17.4814 120.21 18.353 120.21 19.437V20.2061H114.68C114.705 21.1484 114.941 21.8638 115.391 22.3521C115.845 22.8403 116.482 23.0845 117.302 23.0845C118.167 23.0845 119.021 22.9038 119.866 22.5425V23.6265C119.436 23.812 119.028 23.9438 118.643 24.022C118.262 24.105 117.8 24.1465 117.258 24.1465ZM116.929 16.8442C116.284 16.8442 115.769 17.0542 115.383 17.4741C115.002 17.894 114.778 18.4751 114.709 19.2173H118.906C118.906 18.4507 118.735 17.8647 118.394 17.4595C118.052 17.0493 117.563 16.8442 116.929 16.8442ZM129.395 24.1465C128.232 24.1465 127.332 23.79 126.692 23.0771C126.057 22.3594 125.74 21.3462 125.74 20.0376C125.74 18.6948 126.062 17.6572 126.707 16.9248C127.356 16.1924 128.279 15.8262 129.475 15.8262C129.861 15.8262 130.247 15.8677 130.632 15.9507C131.018 16.0337 131.321 16.1313 131.541 16.2437L131.167 17.2764C130.898 17.1689 130.605 17.0811 130.288 17.0127C129.971 16.9395 129.69 16.9028 129.446 16.9028C127.815 16.9028 127 17.9429 127 20.0229C127 21.0093 127.197 21.7661 127.593 22.2935C127.993 22.8208 128.584 23.0845 129.365 23.0845C130.034 23.0845 130.72 22.9404 131.423 22.6523V23.729C130.886 24.0073 130.21 24.1465 129.395 24.1465ZM138.271 24L138.03 22.8574H137.971C137.571 23.3604 137.17 23.7021 136.77 23.8828C136.375 24.0586 135.879 24.1465 135.283 24.1465C134.487 24.1465 133.862 23.9414 133.408 23.5312C132.959 23.1211 132.734 22.5376 132.734 21.7808C132.734 20.1597 134.031 19.3101 136.624 19.2319L137.986 19.188V18.6899C137.986 18.0601 137.849 17.5962 137.576 17.2983C137.307 16.9956 136.875 16.8442 136.279 16.8442C135.61 16.8442 134.854 17.0493 134.009 17.4595L133.635 16.5293C134.031 16.3145 134.463 16.146 134.932 16.0239C135.405 15.9019 135.879 15.8408 136.353 15.8408C137.31 15.8408 138.018 16.0532 138.477 16.478C138.94 16.9028 139.172 17.584 139.172 18.5215V24H138.271ZM135.525 23.1431C136.282 23.1431 136.875 22.9355 137.305 22.5205C137.739 22.1055 137.957 21.5244 137.957 20.7773V20.0522L136.741 20.1035C135.774 20.1377 135.076 20.2891 134.646 20.5576C134.221 20.8213 134.009 21.2339 134.009 21.7954C134.009 22.2349 134.141 22.5693 134.404 22.7988C134.673 23.0283 135.046 23.1431 135.525 23.1431ZM151.917 24V18.7778C151.917 18.1382 151.78 17.6597 151.506 17.3423C151.233 17.02 150.808 16.8589 150.232 16.8589C149.475 16.8589 148.916 17.0762 148.555 17.5107C148.193 17.9453 148.013 18.6143 148.013 19.5176V24H146.797V18.7778C146.797 18.1382 146.66 17.6597 146.387 17.3423C146.113 17.02 145.686 16.8589 145.105 16.8589C144.343 16.8589 143.784 17.0884 143.428 17.5474C143.076 18.0015 142.9 18.7485 142.9 19.7886V24H141.685V15.9727H142.673L142.871 17.0713H142.93C143.159 16.6807 143.481 16.3755 143.896 16.1558C144.316 15.936 144.785 15.8262 145.303 15.8262C146.558 15.8262 147.378 16.2803 147.764 17.1885H147.822C148.062 16.7686 148.408 16.4365 148.862 16.1924C149.316 15.9482 149.834 15.8262 150.415 15.8262C151.323 15.8262 152.002 16.0605 152.451 16.5293C152.905 16.9932 153.132 17.7378 153.132 18.7632V24H151.917ZM159.38 24.1465C158.857 24.1465 158.379 24.0513 157.944 23.8608C157.515 23.6655 157.153 23.3677 156.86 22.9673H156.772C156.831 23.436 156.86 23.8804 156.86 24.3003V27.6035H155.645V15.9727H156.633L156.802 17.0713H156.86C157.173 16.6318 157.537 16.3145 157.952 16.1191C158.367 15.9238 158.843 15.8262 159.38 15.8262C160.444 15.8262 161.265 16.1899 161.841 16.9175C162.422 17.645 162.712 18.6655 162.712 19.979C162.712 21.2974 162.417 22.3228 161.826 23.0552C161.24 23.7827 160.425 24.1465 159.38 24.1465ZM159.204 16.8589C158.384 16.8589 157.791 17.0859 157.424 17.54C157.058 17.9941 156.87 18.7168 156.86 19.708V19.979C156.86 21.1069 157.048 21.915 157.424 22.4033C157.8 22.8867 158.403 23.1284 159.233 23.1284C159.927 23.1284 160.469 22.8477 160.859 22.2861C161.255 21.7246 161.453 20.9507 161.453 19.9644C161.453 18.9634 161.255 18.1968 160.859 17.6646C160.469 17.1274 159.917 16.8589 159.204 16.8589ZM171.772 19.979C171.772 21.2876 171.443 22.3105 170.784 23.0479C170.125 23.7803 169.214 24.1465 168.052 24.1465C167.334 24.1465 166.697 23.978 166.14 23.6411C165.583 23.3042 165.154 22.8208 164.851 22.1909C164.548 21.561 164.397 20.8237 164.397 19.979C164.397 18.6704 164.724 17.6523 165.378 16.9248C166.033 16.1924 166.941 15.8262 168.103 15.8262C169.226 15.8262 170.117 16.1997 170.776 16.9468C171.44 17.6938 171.772 18.7046 171.772 19.979ZM165.657 19.979C165.657 21.0044 165.862 21.7856 166.272 22.3228C166.682 22.8599 167.285 23.1284 168.081 23.1284C168.877 23.1284 169.48 22.8623 169.89 22.3301C170.305 21.793 170.513 21.0093 170.513 19.979C170.513 18.9585 170.305 18.1846 169.89 17.6572C169.48 17.125 168.872 16.8589 168.066 16.8589C167.271 16.8589 166.67 17.1201 166.265 17.6426C165.859 18.165 165.657 18.9438 165.657 19.979ZM173.735 23.2236C173.735 22.8965 173.809 22.6499 173.955 22.4839C174.106 22.313 174.321 22.2275 174.6 22.2275C174.883 22.2275 175.103 22.313 175.259 22.4839C175.42 22.6499 175.5 22.8965 175.5 23.2236C175.5 23.541 175.42 23.7852 175.259 23.9561C175.098 24.127 174.878 24.2124 174.6 24.2124C174.351 24.2124 174.143 24.1367 173.977 23.9854C173.816 23.8291 173.735 23.5752 173.735 23.2236Z" fill="#72272C"/>
</svg>
